<svg width="180" height="42" viewBox="0 0 180 42" fill="none" xmlns="http://www.w3.org/2000/svg">
<g clip-path="url(#clip0_1_2)">
<path d="M173.394 8.66415L177.568 12.8668C177.714 12.9829 177.822 13.1396 177.878 13.3171C177.963 14.3515 177.18 14.4081 176.38 14.4659C176.034 14.4909 175.685 14.5162 175.402 14.621C173.998 15.0009 172.746 15.8033 171.815 16.9193C170.883 18.0353 170.318 19.4109 170.195 20.8593C170.105 21.0266 169.969 21.1643 169.802 21.2558C169.636 21.3474 169.447 21.3888 169.257 21.3753C169.037 21.3558 168.831 21.2595 168.675 21.1032L167.305 19.7238C167.315 19.8182 167.315 19.9117 167.315 19.9869V20.8968C167.315 20.9543 167.317 21.0097 167.31 21.065C167.301 21.127 167.28 21.1888 167.231 21.2532V21.3377C167.231 21.3808 167.236 21.4209 167.241 21.4616C167.251 21.5449 167.262 21.6307 167.231 21.7505C167.201 21.8622 167.198 21.9925 167.194 22.1088C167.193 22.1779 167.191 22.2421 167.184 22.2945C167.174 22.3672 167.174 22.4448 167.168 22.5223C167.162 22.5949 167.15 22.6674 167.118 22.7354C167.074 22.8306 167.059 22.9215 167.055 23.0139C167.052 23.0581 167.052 23.1026 167.052 23.1482L166.996 23.439L164.867 33.5891L164.698 34.3489L164.632 35.4559L163.694 40.2495L163.544 41H87.6248L87.2589 40.6341L87.1932 40.9531H79.0694L74.5478 36.4034L74.9793 34.3489H72.4277L70.8424 32.7448C68.8749 34.1775 66.4934 34.9285 64.06 34.8837C61.4442 34.9866 58.8941 34.0488 56.9681 32.2758L54.5009 29.7899L53.9662 32.2851C53.9006 32.6416 53.8161 32.9794 53.7223 33.3077L53.6379 33.6173L53.4972 34.0675C53.4856 34.1066 53.4699 34.1444 53.4503 34.1801C53.3106 34.5937 53.1446 34.9979 52.9531 35.3902C52.9581 35.4054 52.9581 35.4219 52.9531 35.4371C52.9285 35.4891 52.9003 35.5392 52.8686 35.5872C52.727 35.8675 52.5705 36.1399 52.3996 36.4034C52.3679 36.4513 52.3397 36.5015 52.3152 36.5535L52.212 36.666C51.9827 36.9949 51.732 37.3082 51.4615 37.6041C51.3873 37.6783 51.3131 37.748 51.2377 37.8164C51.1607 37.8864 51.0825 37.9551 51.0018 38.0262L50.7955 38.2232C50.6654 38.3313 50.5323 38.4356 50.3964 38.5361C50.2843 38.619 50.1703 38.6992 50.0544 38.7767C48.1211 39.9222 45.891 40.4674 43.6473 40.3433C40.5516 40.3433 38.075 39.4427 36.5084 37.8668L32.0994 33.4296C30.3383 34.4262 28.3442 34.9377 26.3208 34.9118C23.7129 34.9925 21.1782 34.042 19.2664 32.2664L16.7993 29.7805L16.0019 33.6173L15.8424 34.3771H7.54036L3 29.7992L3.23452 28.6923L8.22515 4.72418L8.37521 3.97372H16.7054L16.9212 4.18013V3.97372H73.0469L73.2533 4.18013V3.97372H81.3771L85.9174 8.55158L85.6923 9.64913L85.4484 10.8499H87.7842L88.1501 11.2158C89.1779 10.6134 90.3453 10.29 91.5366 10.2777C92.4126 10.2604 93.2825 10.4268 94.0903 10.7661C94.8982 11.1054 95.626 11.61 96.227 12.2476L96.105 12.1069L98.3095 14.3302C99.651 11.8068 102.662 10.2777 106.752 10.2777C109.923 10.2777 112.259 11.0844 113.675 12.5478L115.27 14.152L115.805 11.5722L115.964 10.8217H124.097L126.424 13.1576L126.752 11.5816L126.912 10.8311H142.916L143.347 11.2627C144.431 10.6231 145.672 10.2982 146.931 10.3246C147.688 10.295 148.442 10.4336 149.14 10.7305C149.837 11.0273 150.46 11.475 150.964 12.0413C150.938 12.0118 150.913 11.9823 150.888 11.9533C150.843 11.8995 150.798 11.847 150.75 11.7984L151.565 12.6135C152.275 11.8782 153.129 11.2959 154.072 10.9024C155.016 10.5088 156.03 10.3121 157.052 10.3246C157.595 10.2912 158.137 10.3374 158.663 10.4603L157.775 9.56473C157.654 9.43528 157.572 9.27421 157.539 9.10021C157.506 8.92621 157.523 8.74631 157.587 8.58147C157.652 8.41657 157.762 8.27343 157.905 8.16854C158.048 8.06365 158.217 8.00129 158.394 7.98875H159.107C159.299 7.97043 159.49 7.94226 159.679 7.9043C160.676 7.69474 161.614 7.26624 162.425 6.6497C163.237 6.03323 163.901 5.24418 164.37 4.33959C164.411 4.26962 164.448 4.19765 164.482 4.12384V4.07695C164.805 3.38215 165.001 2.63581 165.064 1.87242C165.08 1.6352 165.187 1.41311 165.361 1.25119C165.535 1.08921 165.764 0.99943 166.002 1H166.077C166.219 1.01352 166.357 1.05943 166.479 1.13421C166.601 1.20905 166.704 1.31073 166.781 1.43154C167.456 2.08821 171.208 5.90617 171.208 5.90617C171.521 6.24238 171.498 6.67885 171.474 7.12046C171.459 7.39352 171.444 7.66858 171.508 7.92308C171.679 7.95371 171.852 7.9769 172.024 7.99259C172.19 8.00753 172.356 8.01566 172.522 8.01687C172.716 8.02093 172.905 8.0854 173.061 8.2014C173.217 8.31735 173.334 8.4791 173.394 8.66415Z" fill="black"/>
<path d="M45.9361 11.7505H51.8648L48.544 27.5009C47.9343 30.484 46.771 32.1914 45.0074 33.4015C43.2236 34.4366 41.1753 34.9258 39.1163 34.8086C35.1951 34.8086 31.4333 33.167 31.0581 29.1801H37.0243C37.2119 30.1182 38.075 30.6529 39.3883 30.6529C41.1613 30.6529 41.9774 29.5835 42.3433 27.9043L42.6997 26.1688H42.5684C42.0449 26.7443 41.4099 27.2073 40.702 27.5298C39.994 27.8523 39.228 28.0276 38.4502 28.045C34.9981 28.045 32.2588 25.2964 32.3151 21.272C32.3902 16.5816 35.4483 11.2533 40.5797 11.2533C41.5521 11.1878 42.5229 11.4021 43.3774 11.8709C44.2319 12.3396 44.9342 13.0433 45.4014 13.8987H45.5046L45.9361 11.7505ZM40.8423 23.6454C43.1219 23.6454 44.3883 21.0188 44.4258 18.758C44.4258 17.2477 43.8348 15.6998 42.09 15.6998C39.7072 15.6998 38.4971 18.3546 38.4596 20.6341C38.4596 22.1726 39.0506 23.6454 40.7954 23.6454M107.4 24.152C107.4 25.1557 106.536 25.5591 105.401 25.5591C103.525 25.5591 102.897 24.621 102.887 23.3077H96.9868C96.8836 28.2045 101.255 29.4146 105.139 29.4146C110.101 29.4146 113.319 27.2664 113.385 22.9794C113.385 19.5553 110.467 18.5141 107.597 17.848C105.392 17.3415 104.426 16.9756 104.435 16.1407C104.445 15.3058 105.43 14.9681 106.396 14.9681C107.606 14.9681 108.431 15.3996 108.516 16.5066H114.248C114.182 12.4165 110.495 11.2158 106.743 11.2158C102.184 11.2158 98.6284 13.2889 98.5721 17.2101C98.5721 20.2964 100.655 21.4315 103.797 22.2383C105.814 22.773 107.418 22.9418 107.4 24.152ZM151.236 14.2927H151.133C150.878 13.3689 150.314 12.5602 149.536 12.0005C148.758 11.4409 147.812 11.164 146.855 11.2158C144.304 11.2158 142.747 12.4822 141.274 14.3959H141.171L141.715 11.7505H135.748L132.174 28.8424H138.413L140.289 19.621C140.72 17.6135 141.743 16.2064 143.291 16.2064C144.839 16.2064 145.045 17.4446 144.726 18.955L142.662 28.8424H148.9L150.777 19.621C151.208 17.4822 152.231 16.2064 153.778 16.2064C155.326 16.2064 155.533 17.379 155.214 18.955L153.15 28.8424H159.388L161.621 18.6829C162.559 14.3959 161.124 11.1782 157.006 11.1782C155.86 11.1735 154.732 11.4561 153.724 12.0002C152.716 12.5443 151.861 13.3325 151.236 14.2927ZM4.14441 28.8424H10.5891L15.5703 4.8743H9.13503L4.14441 28.8424ZM23.544 11.2439C27.8967 11.2439 32.0525 13.6266 31.9868 19.0206C31.9305 24.9212 27.9155 29.3396 21.7804 29.3396C17.559 29.3396 13.3377 26.9944 13.4127 21.6285C13.5159 15.8687 17.4746 11.2439 23.544 11.2439ZM21.9587 25.1557C24.7073 25.1557 25.711 21.1688 25.711 18.8236C25.711 17.1445 25.1951 15.5028 23.3845 15.5028C20.6641 15.5028 19.7354 19.7242 19.7354 21.9006C19.7354 23.6454 20.2232 25.1557 21.9962 25.1557M17.7185 4.8743L16.7804 9.66792H70.8986L71.8367 4.8743H17.7185ZM61.2457 11.2439C65.5984 11.2439 69.7541 13.6266 69.6885 19.0206C69.6322 24.9212 65.6078 29.3396 59.4727 29.3396C55.2513 29.3396 51.0299 26.9944 51.1144 21.6285C51.2457 15.8687 55.2044 11.2439 61.2457 11.2439ZM59.6885 25.1557C62.4371 25.1557 63.4408 21.1688 63.4408 18.8236C63.4408 17.1445 62.9155 15.5028 61.105 15.5028C58.3939 15.5028 57.4558 19.7242 57.4558 21.9006C57.4558 23.6454 57.9436 25.1557 59.726 25.1557M74.0506 4.8743L73.1125 9.66792H79.3414L80.2795 4.8743H74.0506ZM69.06 28.8424H75.2982L78.8723 11.7505H72.5965L69.06 28.8424ZM88.9661 29.4146C87.9733 29.4851 86.9804 29.2776 86.0988 28.8153C85.2173 28.353 84.482 27.6542 83.9755 26.7974H83.8723L81.9962 35.4465H75.6828L80.7485 11.7505H86.6772L86.2082 14.03C86.8273 13.188 87.6293 12.4973 88.5538 12.0098C89.4783 11.5224 90.5013 11.2509 91.5459 11.2158C95.2982 11.2158 97.5027 14.4334 97.4371 18.6173C97.3526 23.8799 94.6228 29.4146 88.9286 29.4146H88.9661ZM88.7222 16.0563C86.3114 16.0563 84.8292 19.1426 84.7917 21.516C84.7917 23.167 85.3733 25.0056 87.3526 25.0056C89.9324 25.0056 90.9924 21.591 91.0205 19.3114C91.0205 17.7636 90.5703 16.0563 88.7222 16.0563ZM124.792 26.1501H124.895L124.351 28.8612H130.279L133.854 11.7692H127.625L125.636 21.3189C125.233 23.2983 124.013 24.3396 122.475 24.3396C120.936 24.3396 120.598 22.8949 120.908 21.3846L122.925 11.7692H116.696L114.491 22.3227C113.553 26.9193 115.692 29.3959 119.276 29.3959C120.401 29.3849 121.504 29.0774 122.472 28.5042C123.44 27.931 124.241 27.1125 124.792 26.1313V26.1501ZM158.253 35.531L159.191 30.7373H85.2138L84.2757 35.531H158.253Z" fill="white"/>
<path d="M164.96 16.4409C164.899 16.4362 164.839 16.4193 164.784 16.3912C164.728 16.3632 164.679 16.3245 164.639 16.2774C164.599 16.2303 164.569 16.1758 164.55 16.1169C164.531 16.058 164.524 15.996 164.529 15.9343C164.607 15.0989 164.508 14.2563 164.238 13.4619C163.968 12.6675 163.533 11.939 162.961 11.3244C162.39 10.7098 161.695 10.2227 160.923 9.89524C160.15 9.56775 159.317 9.40717 158.478 9.42403C158.354 9.42403 158.235 9.37462 158.147 9.28665C158.059 9.19869 158.009 9.07938 158.009 8.95498C158.009 8.83058 158.059 8.71129 158.147 8.62333C158.235 8.53536 158.354 8.48594 158.478 8.48594C158.703 8.50048 158.929 8.50048 159.154 8.48594C160.82 8.30843 162.372 7.55564 163.543 6.35711C164.715 5.15858 165.431 3.58928 165.57 1.91934C165.58 1.80155 165.633 1.69169 165.72 1.61168C165.807 1.53168 165.921 1.48745 166.039 1.48783C166.101 1.49256 166.161 1.50945 166.216 1.53751C166.271 1.56557 166.32 1.60425 166.36 1.65133C166.401 1.69842 166.431 1.75296 166.45 1.81184C166.469 1.87071 166.476 1.93275 166.471 1.99439C166.393 2.82905 166.492 3.6708 166.761 4.46458C167.031 5.25835 167.465 5.98628 168.035 6.60078C168.606 7.21527 169.299 7.70249 170.07 8.03058C170.842 8.35867 171.674 8.52023 172.512 8.5047C172.636 8.5047 172.756 8.55413 172.844 8.64209C172.932 8.73005 172.981 8.84935 172.981 8.97375C172.981 9.09815 172.932 9.21746 172.844 9.30542C172.756 9.39338 172.636 9.44279 172.512 9.44279C170.73 9.47223 169.021 10.1588 167.714 11.3707C166.407 12.5826 165.593 14.2345 165.43 16.0094C165.42 16.1272 165.367 16.2371 165.28 16.3171C165.193 16.3971 165.079 16.4413 164.96 16.4409Z" fill="white"/>
</g>
<defs>
<clipPath id="clip0_1_2">
<rect width="175" height="40" fill="white" transform="translate(3 1)"/>
</clipPath>
</defs>
</svg>
